<svg xmlns="http://www.w3.org/2000/svg" xmlns:xlink="http://www.w3.org/1999/xlink" viewBox="0 0 449.8 449.8"><defs><style>.cls-1{fill:none;}.cls-2{fill:#e4e9ed;}.cls-3{fill:#d3c6ae;}.cls-4{fill:#0079f2;}.cls-5{fill:#e5d6b9;}.cls-6{fill:#d1a982;}.cls-7{clip-path:url(#clip-path);}.cls-8{fill:#bf9879;}.cls-9{fill:#e27659;}.cls-10{fill:#d64f39;}.cls-11{fill:#ea7e5a;}.cls-12{fill:#005dba;}.cls-13{fill:#d47a3d;}.cls-14{fill:#f7d65e;}.cls-15{fill:#d1a22a;}.cls-16{fill:#0050a0;}.cls-17{fill:#9f5c2e;}.cls-18{fill:#529e5f;}</style><clipPath id="clip-path"><rect class="cls-1" x="28.45" y="16.5" width="376.01" height="369.64"/></clipPath></defs><title>Asset 9</title><g id="Layer_2" data-name="Layer 2"><g id="Capa_1" data-name="Capa 1"><path class="cls-2" d="M449.8,224.9a223.79,223.79,0,0,1-36.1,122.25A226.1,226.1,0,0,1,388,379.8c-4.6,4.84-9.42,9.49-14.44,13.9a224,224,0,0,1-103.8,51.63,222.18,222.18,0,0,1-23.39,3.46q-10.57,1-21.42,1-10.68,0-21.11-1a225,225,0,0,1-23.1-3.37c-4.77-.95-9.49-2-14.15-3.31a222.3,222.3,0,0,1-47.78-18.91c-1.56-.84-3.12-1.7-4.66-2.58A224.89,224.89,0,0,1,100,37.86q8.86-5.94,18.3-11l.48-.26A225.78,225.78,0,0,1,281.12,7.08l2.33.62c2.17.58,4.31,1.2,6.45,1.84a225.34,225.34,0,0,1,123.15,92.12q4.5,6.84,8.49,14A223.89,223.89,0,0,1,449.8,224.9Z"/><path class="cls-3" d="M397.62,241.09l-94.81-98.53a23.25,23.25,0,0,0-9.15-5.81,5.69,5.69,0,0,0-5.34.88,5.4,5.4,0,0,0-2.05,4.9L293,197.66a5.36,5.36,0,0,0,1.49,3.1L363.82,272A23.3,23.3,0,0,0,380,279.13h.75a23.32,23.32,0,0,0,15.84-6.1,22.27,22.27,0,0,0,1-32Z"/><path class="cls-3" d="M179.85,138.38a5.66,5.66,0,0,0-5.34-.89,23,23,0,0,0-9.15,5.82L70.55,241.83a22.27,22.27,0,0,0,1,31.95,23.31,23.31,0,0,0,15.83,6.1h.76a23.31,23.31,0,0,0,16.15-7.08l69.31-71.29a5.39,5.39,0,0,0,1.49-3.1l6.77-55.13a5.37,5.37,0,0,0-2.05-4.89Z"/><path class="cls-4" d="M300.93,282.07l-44.09-39.74a5.68,5.68,0,0,0-7.34-.19l-33.09,26.73a5.36,5.36,0,0,0,.18,8.51l40.29,30a12.82,12.82,0,0,1,5.2,11.58L258,362a5.35,5.35,0,0,0,1.43,4.17,5.64,5.64,0,0,0,4.12,1.77h27.12a5.53,5.53,0,0,0,5.45-4.32l12.49-58.17a24.6,24.6,0,0,0-7.64-23.35Z"/><path class="cls-4" d="M259.73,268.87l-33.08-26.73a5.68,5.68,0,0,0-7.34.19l-44.09,39.74a24.63,24.63,0,0,0-7.65,23.35l12.49,58.17a5.54,5.54,0,0,0,5.46,4.32h27.11a5.66,5.66,0,0,0,4.13-1.77,5.42,5.42,0,0,0,1.43-4.17l-4.12-43.05a12.82,12.82,0,0,1,5.2-11.58l40.29-30a5.35,5.35,0,0,0,.17-8.51Z"/><path class="cls-5" d="M233.67,105.29c-42.63,0-77.32,33.83-77.32,75.41v61.52c0,41.58,34.69,75.41,77.32,75.41S311,283.8,311,242.22V180.7c0-41.58-34.68-75.41-77.31-75.41Z"/><path class="cls-6" d="M233.67,105.29a80.34,80.34,0,0,0-8.55.46c38.62,4.17,68.76,36.19,68.76,74.95v61.52c0,38.76-30.14,70.78-68.76,75a80.34,80.34,0,0,0,8.55.46c42.63,0,77.31-33.83,77.31-75.41V180.7c0-41.58-34.68-75.41-77.31-75.41Z"/><path class="cls-6" d="M237.84,251.76h-9.51a5.44,5.44,0,1,1,0-10.88h9.51a5.44,5.44,0,1,1,0,10.88Z"/><path class="cls-6" d="M166.24,87.09h-.09c-14.5,0-26.26,11.58-26.22,25.73s11.84,25.58,26.3,25.58h.08c14.51-.05,26.27-11.59,26.22-25.73S180.7,87.09,166.24,87.09Z"/><path class="cls-6" d="M301.1,86.69H301a26.46,26.46,0,0,0-18.58,7.57,25.21,25.21,0,0,0,.11,36.28A26.46,26.46,0,0,0,301.1,138h.08a26.46,26.46,0,0,0,18.58-7.57,25.15,25.15,0,0,0,7.65-18.16c-.05-14.12-11.84-25.58-26.31-25.58Z"/><g class="cls-7"><path class="cls-8" d="M301.1,86.69H301a27.18,27.18,0,0,0-6.65.86A25.8,25.8,0,0,1,314,112.27a25.14,25.14,0,0,1-7.64,18.16,26.31,26.31,0,0,1-11.93,6.73,27.23,27.23,0,0,0,6.71.84h.08a26.48,26.48,0,0,0,18.58-7.57,25.14,25.14,0,0,0,7.64-18.16c0-14.12-11.83-25.58-26.3-25.58Z"/><path class="cls-9" d="M195.46,378l-39-65.91a5.65,5.65,0,0,0-9.66,0l-19.61,33.13L92.72,287a5.64,5.64,0,0,0-9.65,0L29.2,378a5.34,5.34,0,0,0,0,5.43A5.6,5.6,0,0,0,34,386.14h156.6a5.6,5.6,0,0,0,4.83-2.72,5.29,5.29,0,0,0,0-5.43Z"/></g><path class="cls-10" d="M110.08,345.21l8.56-14.45L92.72,287a5.64,5.64,0,0,0-9.65,0l-3.73,6.28Z"/><path class="cls-10" d="M195.46,378l-39-65.91a5.65,5.65,0,0,0-9.66,0l-3.72,6.29L178.36,378a5.31,5.31,0,0,1,0,5.44,5.61,5.61,0,0,1-4.83,2.71h17.1a5.61,5.61,0,0,0,4.83-2.71,5.31,5.31,0,0,0,0-5.44Z"/><path class="cls-11" d="M309.25,339.42h-32.6c-12.81,0-23.23,10.17-23.23,22.67v17.09a5.65,5.65,0,0,0,5.72,5.57h50.11c12.82,0,23.24-10.16,23.24-22.66s-10.42-22.67-23.24-22.67Z"/><path class="cls-11" d="M199.5,339.42H166.9c-12.82,0-23.24,10.17-23.24,22.67s10.42,22.66,23.24,22.66H217a5.65,5.65,0,0,0,5.72-5.57V362.09c0-12.5-10.42-22.67-23.23-22.67Z"/><path class="cls-10" d="M309.25,339.42h-17.1c12.81,0,23.24,10.17,23.24,22.67S305,384.75,292.15,384.75h17.1c12.82,0,23.24-10.16,23.24-22.66s-10.42-22.67-23.24-22.67Z"/><path class="cls-10" d="M199.5,339.42H182.39c12.82,0,23.24,10.17,23.24,22.67v17.09a5.65,5.65,0,0,1-5.72,5.57H217a5.65,5.65,0,0,0,5.72-5.57V362.09c0-12.5-10.42-22.67-23.23-22.67Z"/><path class="cls-4" d="M161.86,270c0,.1.06.2.1.3a76.23,76.23,0,0,0,28,34,78.52,78.52,0,0,0,87.39,0,76.18,76.18,0,0,0,28-34c0-.1.06-.2.1-.3Z"/><path class="cls-12" d="M288.38,270l-.11.3a76.1,76.1,0,0,1-28,34,78,78,0,0,1-35.14,12.82,80.77,80.77,0,0,0,8.55.46,78,78,0,0,0,43.69-13.28,76.1,76.1,0,0,0,28-34l.11-.3Z"/><path class="cls-3" d="M303.55,73.65a4.07,4.07,0,0,0,0-.5V61.57c0-12.47-7.57-24-21.34-32.58-13-8-30.06-12.49-48.09-12.49S199,20.94,186,29c-13.76,8.54-21.35,20.11-21.35,32.58V73.76l.18,54.49c.11,37.28,31.24,67.54,69.44,67.54h.21c38.3-.11,69.36-30.59,69.25-67.94Z"/><path class="cls-6" d="M303.55,73.65a4.07,4.07,0,0,0,0-.5V61.57c0-12.47-7.57-24-21.34-32.58-13-8-30.06-12.49-48.09-12.49q-4.34,0-8.56.35C240.37,18,254.17,22.22,265.08,29c13.76,8.54,21.34,20.11,21.34,32.58V73.15a4.07,4.07,0,0,1,0,.5l.16,54.2c.11,34.6-26.54,63.3-60.9,67.43a73,73,0,0,0,8.55.51h.21c38.3-.11,69.36-30.59,69.24-67.94Z"/><path class="cls-13" d="M303.55,73.65a4.07,4.07,0,0,0,0-.5V61.57c0-12.47-7.57-24-21.34-32.58-13-8-30.06-12.49-48.09-12.49S199,20.94,186,29c-13.76,8.54-21.35,20.11-21.35,32.58V73.75l0,9.61a5.51,5.51,0,0,0,5.57,5.42H298a5.68,5.68,0,0,0,3.95-1.6,5.39,5.39,0,0,0,1.63-3.86Z"/><path class="cls-14" d="M303.55,73.65a4.07,4.07,0,0,0,0-.5V61.57c0-12.47-7.57-24-21.34-32.58-13-8-30.06-12.49-48.09-12.49S199,20.94,186,29c-13.76,8.54-21.35,20.11-21.35,32.58V73.75l0,9.61a5.51,5.51,0,0,0,5.57,5.42H298a5.68,5.68,0,0,0,3.95-1.6,5.39,5.39,0,0,0,1.63-3.86Z"/><path class="cls-15" d="M303.55,73.65a4.07,4.07,0,0,0,0-.5V61.57c0-12.47-7.57-24-21.34-32.58-13-8-30.06-12.49-48.09-12.49q-4.34,0-8.56.35C240.37,18,254.17,22.22,265.08,29c13.76,8.54,21.34,20.11,21.34,32.58V73.15a4.07,4.07,0,0,1,0,.5l0,9.67a5.39,5.39,0,0,1-1.63,3.86,5.68,5.68,0,0,1-4,1.6H298a5.68,5.68,0,0,0,3.95-1.6,5.39,5.39,0,0,0,1.63-3.86Z"/><path class="cls-6" d="M233.75,152.76a19.75,19.75,0,0,1-13.2-5,5.33,5.33,0,0,1-.35-7.68,5.66,5.66,0,0,1,7.87-.34,8.55,8.55,0,0,0,5.68,2.14h0a8.38,8.38,0,0,0,5.68-2.18,5.7,5.7,0,0,1,7.89.3,5.35,5.35,0,0,1-.31,7.69,19.73,19.73,0,0,1-13.22,5.07Z"/><path class="cls-16" d="M219.62,126.71a5.61,5.61,0,1,0-5.59,5.48,5.54,5.54,0,0,0,5.59-5.48Z"/><path class="cls-17" d="M220.6,120a5.9,5.9,0,0,1-1.43-.18l-13.25-3.42a5.42,5.42,0,0,1-4-6.65,5.57,5.57,0,0,1,6.81-3.87L222,109.34a5.43,5.43,0,0,1,4,6.65A5.56,5.56,0,0,1,220.6,120Z"/><path class="cls-16" d="M259.25,126.59a5.61,5.61,0,1,0-5.6,5.49,5.54,5.54,0,0,0,5.6-5.49Z"/><path class="cls-17" d="M247,120a5.55,5.55,0,0,1-5.38-4,5.43,5.43,0,0,1,3.92-6.67l13.23-3.5a5.6,5.6,0,0,1,6.84,3.83,5.42,5.42,0,0,1-3.92,6.67l-13.23,3.5A5.68,5.68,0,0,1,247,120Z"/><path class="cls-18" d="M382.37,351.24l-11.08-7.5v-6.09l4.92,3.33a5.67,5.67,0,0,0,7.76-1.37,5.36,5.36,0,0,0-1.4-7.57l-11.28-7.63V322a5.58,5.58,0,0,0-11.15,0v2.47l-11,7.63a5.35,5.35,0,0,0-1.29,7.59,5.65,5.65,0,0,0,7.77,1.26l4.48-3.11v5.7L349,351.29a5.34,5.34,0,0,0-1.3,7.58,5.67,5.67,0,0,0,7.78,1.27l4.67-3.25v23a5.58,5.58,0,0,0,11.15,0V357l4.72,3.2a5.67,5.67,0,0,0,7.76-1.37,5.35,5.35,0,0,0-1.4-7.57Z"/></g></g></svg>