<svg xmlns="http://www.w3.org/2000/svg" viewBox="0 0 418.5 418.5"><defs><style>.cls-1{fill:#e4e9ed;}.cls-2{fill:#0079f2;}.cls-3{fill:#529e5f;}.cls-4{fill:#ffd422;}.cls-5{fill:#d1a22a;}.cls-6{fill:#ea7e5a;}.cls-7{fill:#d64f39;}.cls-8{fill:#fff;}</style></defs><title>Asset 10</title><g id="Layer_2" data-name="Layer 2"><g id="Capa_1" data-name="Capa 1"><circle class="cls-1" cx="209.25" cy="209.25" r="209.25"/><path class="cls-2" d="M75.88,324.82V305.63h9.6V296h-9.6V276.84h19.2v-9.6H75.88V248h9.6v-9.59h-9.6v-19.2h19.2v-9.6H75.88V190.46h9.6v-9.6h-9.6v-19.2h19.2v-9.59H75.88v-19.2h9.6v-9.6h-9.6V104.08h19.2v-9.6H75.88V75.29H66.29V329.62a4.79,4.79,0,0,0,4.8,4.8H354.22v-9.6Z"/><rect class="cls-3" x="95.27" y="340.02" width="9.6" height="19.2"/><rect class="cls-3" x="114.47" y="340.02" width="9.6" height="19.2"/><rect class="cls-3" x="162.46" y="340.02" width="9.6" height="19.2"/><rect class="cls-3" x="181.65" y="340.02" width="9.6" height="19.2"/><rect class="cls-3" x="229.64" y="340.02" width="9.6" height="19.2"/><rect class="cls-3" x="248.84" y="340.02" width="9.6" height="19.2"/><rect class="cls-3" x="296.82" y="340.02" width="9.6" height="19.2"/><rect class="cls-3" x="316.02" y="340.02" width="9.6" height="19.2"/><circle class="cls-4" cx="127.67" cy="286.03" r="14.4"/><circle class="cls-4" cx="329.22" cy="170.86" r="14.4"/><path class="cls-4" d="M209.25,233.24a13.15,13.15,0,0,1-.58,3.94,14.38,14.38,0,1,1,.58-3.94Z"/><path class="cls-4" d="M276.43,252.44a14.4,14.4,0,1,1-28.79,0,13.19,13.19,0,0,1,.58-3.94,14.39,14.39,0,0,1,28.21,3.94Z"/><rect class="cls-5" x="256.41" y="206.05" width="77.81" height="9.6" transform="translate(-53.81 309.74) rotate(-51.34)"/><rect class="cls-5" x="223.65" y="222.28" width="9.59" height="41.13" transform="translate(-67.9 395.62) rotate(-74.02)"/><rect class="cls-5" x="131.49" y="254.36" width="57.59" height="9.59" transform="translate(-123.41 147.94) rotate(-36.86)"/><circle class="cls-6" cx="127.67" cy="214.05" r="14.4"/><path class="cls-6" d="M209.25,108.48a14.4,14.4,0,1,1-14.4-14.4A14.39,14.39,0,0,1,209.25,108.48Z"/><path class="cls-6" d="M343.62,122.87A14.4,14.4,0,0,1,316.7,130a14.93,14.93,0,0,1-1.88-7.15,14.4,14.4,0,0,1,28.8,0Z"/><path class="cls-6" d="M276.43,161.26a14.39,14.39,0,1,1-1.92-7.15A14.4,14.4,0,0,1,276.43,161.26Z"/><rect class="cls-7" x="270.93" y="136.09" width="52.29" height="9.59" transform="translate(-30.45 169.68) rotate(-30.4)"/><rect class="cls-7" x="223.64" y="106.54" width="9.6" height="56.66" transform="translate(-18.81 231.01) rotate(-51.8)"/><rect class="cls-7" x="115.49" y="155.34" width="93.45" height="9.6" transform="translate(-59.76 211.95) rotate(-57.77)"/><rect class="cls-8" x="329.22" y="170.86" width="9.6" height="9.6"/><rect class="cls-8" x="329.22" y="122.87" width="9.6" height="9.6"/><rect class="cls-8" x="262.04" y="161.26" width="9.6" height="9.6"/><rect class="cls-8" x="194.85" y="108.48" width="9.6" height="9.6"/><rect class="cls-8" x="127.67" y="214.05" width="9.6" height="9.6"/><rect class="cls-8" x="127.67" y="286.03" width="9.6" height="9.6"/><rect class="cls-8" x="194.85" y="233.24" width="9.6" height="9.6"/><rect class="cls-8" x="262.04" y="252.44" width="9.6" height="9.6"/></g></g></svg>