<svg xmlns="http://www.w3.org/2000/svg" xmlns:xlink="http://www.w3.org/1999/xlink" viewBox="0 0 500 500"><defs><style>.cls-1{fill:none;}.cls-2{fill:#0062db;}.cls-3{fill:#dae8ef;}.cls-4{clip-path:url(#clip-path);}.cls-5{fill:#f7d65e;}.cls-6{fill:#d89932;}.cls-7{fill:#f2b643;}.cls-8{fill:#d1a22a;}.cls-9{fill:#d64f39;}.cls-10{fill:#ea7e5a;}.cls-11{fill:#aab4ba;}.cls-12{fill:#cddae3;}.cls-13{fill:#ff8564;}</style><clipPath id="clip-path"><rect class="cls-1" x="82.13" y="33.61" width="335.73" height="404.77"/></clipPath></defs><title>Asset 4</title><g id="Layer_2" data-name="Layer 2"><g id="Capa_1" data-name="Capa 1"><circle class="cls-2" cx="250" cy="250" r="250"/><path class="cls-3" d="M155.22,353.63,87.39,375.16,88.86,380l67.82-21.53Z"/><path class="cls-3" d="M158.25,363.59,90.44,385.16l1.61,5.3,67.83-21.53Z"/><path class="cls-3" d="M152,342.92,84.13,364.45l1.75,5.74,67.82-21.54Z"/><g class="cls-4"><path class="cls-3" d="M132.05,327.38,91.68,339.21a13.49,13.49,0,0,0-9.16,8.26l60.61-18.55a12.83,12.83,0,0,0-11.08-1.54Z"/><path class="cls-3" d="M146.78,333.45,82.56,353.84a8.93,8.93,0,0,0,0,5.27l.11.39L150.42,338a9.18,9.18,0,0,0-3.64-4.52Z"/></g><path class="cls-3" d="M109.38,436.16a14.74,14.74,0,0,0,10.58.57l42.79-13a14.43,14.43,0,0,0,9-7.33Z"/><path class="cls-3" d="M161.43,374,93.61,395.57,95.26,401l67.82-21.53Z"/><path class="cls-3" d="M167.77,394.84,99.94,416.38l1.58,5.17L169.34,400Z"/><path class="cls-3" d="M172.31,409.74,171,405.39l-67.82,21.53,1.07,3.55a8.51,8.51,0,0,0,.49,1.21l67.69-21.5c0-.14-.06-.29-.1-.44Z"/><path class="cls-3" d="M164.58,384.37,96.75,405.9l1.58,5.18,67.83-21.53Z"/><path class="cls-5" d="M233.74,302.76l38.45,56.73s-7.8,16.28-28.14,24.86-32.24,10.88-40.46,11.7-15.66.32-19.66,2-13.5,5.25-13.5,5.25l-18.59-60.55s7.38-3,14.79-18.07,11.6-20,11.6-20,19.41-8.14,31.68-11,16.88-4.75,19.22-.94a71.35,71.35,0,0,1,4.61,9.93Z"/><path class="cls-6" d="M170.16,403.9l-.13-.43-18.71-60.93.36-.15c.08,0,7.33-3.12,14.57-17.86,7.36-15,11.48-19.87,11.66-20.07l.07-.08.09,0c.19-.08,19.58-8.18,31.74-11,1.91-.44,3.62-.85,5.18-1.23,5.25-1.27,8.72-2.12,11.08-1.77a4.52,4.52,0,0,1,3.42,2.25,70.58,70.58,0,0,1,4.63,10l38.57,56.89-.11.22c-.08.17-8.11,16.52-28.37,25.07-21.38,9-33.4,11-40.58,11.74-2.9.29-5.76.42-8.29.53-4.68.21-8.72.38-11.25,1.47-4,1.71-13.41,5.22-13.51,5.26ZM152.36,343l18.35,59.76c1.89-.71,9.58-3.59,13-5.09,2.67-1.14,6.78-1.33,11.54-1.54,2.64-.11,5.37-.23,8.25-.52,7.12-.71,19-2.69,40.33-11.67a57.51,57.51,0,0,0,27.82-24.44L233.36,303l0,0a70.8,70.8,0,0,0-4.58-9.86A3.69,3.69,0,0,0,226,291.2c-2.2-.32-5.6.5-10.75,1.75-1.56.38-3.29.8-5.2,1.24-11.64,2.69-30,10.28-31.5,10.91-.55.67-4.67,5.94-11.48,19.82-6.57,13.37-13.06,17.3-14.66,18.1Z"/><path class="cls-5" d="M271.31,352.5s-1.27-7.06-7.83-5.71c-7.2,1.48-24.54,7.32-33.25,11.54-7.65,3.7-8.94,5.7-8,11.25s7.23,6.88,9.8,6.07,1.79,0,35.13-11.07c0,0,6.16-2.69,5.23-7.07s-1.07-5-1.07-5Z"/><path class="cls-6" d="M229.05,376.2c-3.06-.45-6.57-2.4-7.26-6.54-1-5.82.58-8,8.25-11.72,8.73-4.23,26.19-10.1,33.35-11.57a7.55,7.55,0,0,1,2.66-.11c4.64.67,5.64,5.94,5.68,6.17l1.06,5c1,4.66-5.21,7.43-5.47,7.55-26.82,8.9-31.51,10.11-33.77,10.7-.52.13-.9.23-1.4.38a7.09,7.09,0,0,1-3.1.15Zm36.88-29.09a6.87,6.87,0,0,0-2.37.1c-7.11,1.46-24.46,7.3-33.15,11.51-7.75,3.75-8.62,5.67-7.77,10.8.61,3.68,3.78,5.43,6.53,5.83a6.52,6.52,0,0,0,2.73-.11c.51-.17.89-.27,1.44-.4,2.24-.58,6.92-1.79,33.68-10.67,0,0,5.79-2.59,4.94-6.57l-1.07-5c0-.06-.94-4.9-5-5.48Z"/><path class="cls-5" d="M267.89,336.39s-1.17-6.36-7.83-5.72-28.45,8.6-35.77,12.91-11.61,6.18-10.68,11.73,7.27,6.89,9.84,6.08,40.28-12.93,40.28-12.93,6.16-2.69,5.22-7.06-1.06-5-1.06-5Z"/><path class="cls-6" d="M220.48,361.94c-3.08-.45-6.6-2.41-7.29-6.55-.89-5.34,2.81-7.48,8.93-11l1.95-1.14c7.58-4.46,29.42-12.34,35.94-13a9,9,0,0,1,2.21,0c5.06.74,6.08,6,6.09,6l1.06,5c1,4.66-5.21,7.43-5.47,7.55-.42.14-37.77,12.14-40.32,12.94a7.26,7.26,0,0,1-3.1.14Zm41.61-30.8a8.73,8.73,0,0,0-2,0c-6.46.62-28.08,8.42-35.59,12.85l-2,1.15c-6,3.48-9.31,5.39-8.52,10.14.62,3.69,3.8,5.44,6.57,5.85a6.46,6.46,0,0,0,2.72-.11c2.55-.8,39.9-12.8,40.28-12.92,0,0,5.79-2.59,4.94-6.57l-1.07-5c0-.2-.93-4.69-5.38-5.34Z"/><path class="cls-5" d="M262.84,320.35s-1.23-6.35-7.89-5.63-23.9,8.2-31.17,12.59-14.34,8.31-13.35,13.85,5.71,5.54,8.28,4.69,40.12-13.38,40.12-13.38,6.13-2.77,5.14-7.13-1.13-5-1.13-5Z"/><path class="cls-6" d="M215.07,346.62c-1.92-.28-4.36-1.45-5.06-5.38-1-5.54,5.51-9.45,12.39-13.59l1.16-.7c7.21-4.36,24.48-11.92,31.34-12.66a9.76,9.76,0,0,1,2.3,0c5,.73,6.05,5.89,6.07,5.95l1.12,5c1.05,4.66-5.12,7.5-5.39,7.62s-37.62,12.57-40.16,13.4a8.34,8.34,0,0,1-3.77.36Zm42-31.45a8,8,0,0,0-2.08,0c-6.65.71-24,8.32-31,12.53l-1.17.71c-6.62,4-12.87,7.74-12,12.7.61,3.43,2.69,4.44,4.34,4.68a7.66,7.66,0,0,0,3.37-.32c2.54-.83,39.75-13.26,40.13-13.39,0,0,5.75-2.66,4.86-6.63l-1.14-5c0-.2-1-4.63-5.34-5.27Z"/><path class="cls-5" d="M256.84,302s-1.84-6.2-8.39-4.84-23.66,9.54-30.48,14.61-12.82,10.55-11.3,16,6.21,5,8.68,3.87S254,314.4,254,314.4s5.84-3.34,4.44-7.59L256.84,302Z"/><path class="cls-6" d="M211.17,332.62c-1.7-.25-3.93-1.28-4.91-4.8-1.61-5.76,4.56-11.3,11.46-16.44s24-13.33,30.64-14.7a8.78,8.78,0,0,1,3-.12c4.48.66,5.84,5.08,5.9,5.27l1.59,4.85c1.5,4.53-4.38,7.95-4.63,8.09-.4.18-36.25,16.13-38.69,17.2a8.33,8.33,0,0,1-4.36.65Zm40.06-35.21a7.74,7.74,0,0,0-2.69.12C242,298.87,225,307,218.23,312.06c-6.34,4.72-12.62,10.26-11.15,15.52.69,2.47,2.11,3.88,4.22,4.19a7.45,7.45,0,0,0,3.88-.59c2.44-1.07,38.29-17,38.66-17.17,0,0,5.47-3.2,4.2-7.07l-1.6-4.86c-.06-.17-1.28-4.09-5.21-4.67Z"/><path class="cls-7" d="M154.43,341.16l-2.59,1.63a12.58,12.58,0,0,0,2.59-1.63Z"/><path class="cls-8" d="M241.35,317c-3.41-4.83-7.27-13.69-7.27-13.69a86.51,86.51,0,0,0-5-10.43c-2.34-3.81-6.95-1.88-19.22.94s-31.68,11-31.68,11-4.18,4.88-11.6,20c-4.71,9.6-9.4,14.29-12.2,16.44L191.1,318c20.91,6.75,27.29-4.24,27.29-4.24,1.86,6.56,5.6,12.1,10.35,15.18s14.89,3.48,17.38,1.25-1.36-8.44-4.77-13.28Z"/><path class="cls-6" d="M152,343.19l-.32-.8c.08,0,7.33-3.12,14.57-17.86,7.36-15,11.48-19.87,11.66-20.07l.07-.08.09,0c.19-.08,19.58-8.18,31.74-11,1.91-.44,3.62-.85,5.18-1.23,8.49-2.06,12.37-3,14.5.48a86.31,86.31,0,0,1,5,10.5c0,.08,3.87,8.86,7.22,13.6,3.63,5.16,7.45,11.39,4.71,13.85s-13.21,1.84-17.9-1.21-8.32-8.26-10.29-14.59c-1.95,2.39-9.5,9.44-27.25,3.71l.26-.82c20.35,6.56,26.73-3.94,26.79-4.05l.51-.88.27,1c1.84,6.49,5.55,11.93,10.18,14.93s14.54,3.36,16.86,1.29c2.52-2.26-3-10.13-4.84-12.71-3.4-4.82-7.27-13.68-7.31-13.77a86.24,86.24,0,0,0-4.93-10.38c-1.81-2.95-5.25-2.12-13.57-.1-1.56.38-3.28.8-5.19,1.24-11.65,2.68-30,10.28-31.5,10.91-.55.67-4.67,5.94-11.48,19.81-7.41,15.08-14.71,18.16-15,18.28Z"/><path class="cls-8" d="M249.87,315.78c2.6-1.15,4-1.75,4-1.75s5.38-3,4.16-7.33a31.87,31.87,0,0,0-1.85-5.31s-2.08-5.21-7.69-3.92a44.3,44.3,0,0,0-4.55,1.45,6,6,0,0,1,3.39,2.39c1.23,1.92,3.83,8.59,3.6,10.94a8,8,0,0,1-1.06,3.53Z"/><path class="cls-8" d="M255.38,333.21c2.58-.85,4.05-1.5,4.05-1.5s5.24-2.59,4.27-7a22.43,22.43,0,0,0-1.94-6A6.06,6.06,0,0,0,254.5,315a17.32,17.32,0,0,0-4.66,1.71,4.9,4.9,0,0,1,3.52,2.16c1.18,1.95,3.57,8.7,3.26,11a6,6,0,0,1-1.24,3.29Z"/><path class="cls-8" d="M260.88,348.91a11.39,11.39,0,0,0,4.46-1.84,5.61,5.61,0,0,0,3.13-6.56A35.87,35.87,0,0,0,267,335s-1.91-4-5.24-3.92c-1.7,1.45-3.42,2.07-6.13,2.86a6.05,6.05,0,0,1,3.43,2.49c1.17,2,3.1,7.46,2.79,9.8s-1,2.68-1,2.68Z"/><path class="cls-8" d="M265.64,364.62c3.24-.93,7.27-3.61,6.28-7.92a44.31,44.31,0,0,0-1.59-5.69,6.25,6.25,0,0,0-3.67-3.84c-1.67,1.4-3.54,2-6,2.74a5.86,5.86,0,0,1,3.33,2.46c1.13,1.92,3,7.31,2.64,9.6s-1,2.65-1,2.65Z"/><path class="cls-5" d="M111.09,219.78l-16.26,4.15s-5,16.23,5.19,26.85l15.44-2.95Z"/><path class="cls-8" d="M114.34,240.65l1.12,7.18L100,250.78c-10.18-10.62-5.19-26.85-5.19-26.85s-.09,14.78,6,19.23Z"/><path class="cls-9" d="M236.35,266.66l2.3,10.81-55.09,10.12-2.38-9.44Z"/><path class="cls-10" d="M235.59,283.77s11,53.61,33.62,97.41l-43.46,15.55s-21.9-44.33-36-103.78Z"/><path class="cls-9" d="M271.23,379.72l-48,17.35,3.43,10.72,48.56-18.52Z"/><path class="cls-3" d="M356.49,34.72S291.22,121.06,253,142.85s-72.9,18.67-72.9,18.67L199.4,275.93s34.85-12.52,60.24-9.77,60.19,11.75,151.42,72.09Z"/><path class="cls-10" d="M180.05,161.52s-78.17-1.66-70.68,67,90,47.45,90,47.45Z"/><path class="cls-11" d="M193.94,243.19l5.46,32.74s34.85-12.52,60.24-9.77,60.19,11.75,151.43,72.09l-7.75-43.06-54.75-30.72S300.93,240,267.8,235.58s-73.86,7.61-73.86,7.61Z"/><path class="cls-9" d="M119.87,185.48c-7.88,9.8-12.62,23.58-10.5,43,7.48,68.62,90,47.45,90,47.45l-5.46-32.74s-14.44,3.07-36.55-3.84c-34.83-10.88-37.52-53.87-37.52-53.87Z"/><g class="cls-4"><path class="cls-12" d="M181.43,170l-1.38-8.5s34.63,3.12,72.9-18.67S356.49,34.72,356.49,34.72l2.4,13.36s-39.84,48.3-50,60.83c-11.29,14-31.62,35.26-58.46,47.8-10.4,4.86-36.77,13-69,13.31Z"/><path class="cls-9" d="M403.91,182.8c14.56,84,17.82,153.61,7.28,155.44s-30.88-64.81-45.44-148.83S347.93,35.79,358.47,34s30.88,64.81,45.44,148.83Z"/><path class="cls-10" d="M415.74,272.61c3.14,38.74,1.81,64.53-4.55,65.63-10.54,1.82-30.88-64.81-45.44-148.83S347.93,35.79,358.47,34c4.29-.75,10.23,9.9,16.73,28.46,0,0-7.24-13.8-12.93-11.7S368.1,161.19,374.64,190s23.64,126,32.93,128.8,8.17-46.23,8.17-46.23Z"/></g><path class="cls-5" d="M382.43,227.84s34.7-10.54,27.91-44.32-41.67-30.79-41.67-30.79,5.26,37.12,13.76,75.11Z"/><path class="cls-13" d="M181.49,170l-1.44-8.49s-45.77-1-63.91,29.32c0,0,16.92-25.35,65.35-20.83Z"/><path class="cls-8" d="M393.05,222.72a48.85,48.85,0,0,1-10.62,5.12c-8.5-38-13.76-75.11-13.76-75.11a36,36,0,0,1,4,0s4.23,39.46,9.58,53.25,10.76,16.77,10.76,16.77Z"/></g></g></svg>