<svg xmlns="http://www.w3.org/2000/svg" xmlns:xlink="http://www.w3.org/1999/xlink" viewBox="0 0 500 500"><defs><style>.cls-1{fill:none;}.cls-2{fill:#e4e9ed;}.cls-3{fill:#0079f2;}.cls-4{clip-path:url(#clip-path);}.cls-5{fill:#f7d65e;}.cls-6{fill:#d89932;}.cls-7{fill:#f2b643;}.cls-8{fill:#d1a22a;}.cls-9{fill:#d64f39;}.cls-10{fill:#ea7e5a;}.cls-11{fill:#dae8ef;}.cls-12{fill:#aab4ba;}.cls-13{fill:#cddae3;}.cls-14{fill:#ff8564;}</style><clipPath id="clip-path"><rect class="cls-1" x="82.13" y="9.61" width="367.26" height="442.78"/></clipPath></defs><title>Asset 8</title><g id="Layer_2" data-name="Layer 2"><g id="Capa_1" data-name="Capa 1"><circle class="cls-2" cx="250" cy="250" r="250"/><path class="cls-3" d="M162.08,359.67,87.89,383.23l1.6,5.27,74.19-23.56Z"/><path class="cls-3" d="M165.4,370.56l-74.18,23.6L93,400l74.19-23.55Z"/><path class="cls-3" d="M158.51,348,84.32,371.51l1.91,6.27,74.19-23.55Z"/><g class="cls-4"><path class="cls-3" d="M136.74,331,92.58,343.89a14.8,14.8,0,0,0-10,9l66.3-20.28A14,14,0,0,0,136.74,331Z"/><path class="cls-3" d="M152.84,337.59,82.6,359.9a9.78,9.78,0,0,0-.06,5.77l.13.42,74.16-23.55a10,10,0,0,0-4-5Z"/></g><path class="cls-3" d="M111.94,450a16.17,16.17,0,0,0,11.57.63l46.8-14.25a15.84,15.84,0,0,0,9.82-8Z"/><path class="cls-3" d="M168.88,382,94.69,405.54l1.8,5.93,74.19-23.55Z"/><path class="cls-3" d="M175.81,404.75l-74.19,23.56,1.72,5.66,74.19-23.56Z"/><path class="cls-3" d="M180.77,421.05l-1.45-4.76-74.19,23.55,1.18,3.89a8.87,8.87,0,0,0,.53,1.32l74-23.51a4.31,4.31,0,0,0-.11-.49Z"/><path class="cls-3" d="M172.32,393.3,98.13,416.85l1.72,5.67L174.05,399Z"/><path class="cls-5" d="M248,304,290,366.09s-8.54,17.8-30.79,27.18S224,405.18,215,406.08s-17.13.34-21.52,2.23-14.75,5.74-14.75,5.74l-20.34-66.23s8.06-3.25,16.18-19.77,12.69-21.86,12.69-21.86,21.23-8.91,34.65-12,18.47-5.19,21-1A78.46,78.46,0,0,1,248,304Z"/><path class="cls-6" d="M178.42,414.66l-.14-.47-20.47-66.65.4-.16c.08,0,8-3.42,15.94-19.54,8-16.39,12.56-21.73,12.75-21.95l.08-.09.1,0c.21-.09,21.41-9,34.72-12,2.08-.48,4-.93,5.66-1.35,5.75-1.39,9.55-2.31,12.13-1.93a5,5,0,0,1,3.74,2.46,79.29,79.29,0,0,1,5.07,10.89L290.58,366l-.11.24c-.09.18-8.88,18.07-31,27.43C236,403.58,222.9,405.76,215,406.55c-3.17.31-6.31.45-9.07.57-5.12.23-9.54.42-12.3,1.61-4.35,1.87-14.68,5.72-14.78,5.76ZM159,348.07,179,413.43c2.07-.77,10.47-3.92,14.27-5.56,2.92-1.25,7.42-1.45,12.63-1.69,2.88-.12,5.87-.25,9-.57,7.79-.78,20.84-2.94,44.12-12.77,20.43-8.62,29.31-24.58,30.43-26.72l-41.94-61.88,0-.06a77.7,77.7,0,0,0-5-10.77,4,4,0,0,0-3.07-2c-2.41-.35-6.13.55-11.77,1.92-1.71.41-3.59.87-5.68,1.35-12.74,2.94-32.82,11.25-34.46,11.93-.6.74-5.11,6.5-12.56,21.68-7.19,14.63-14.29,18.93-16,19.81Z"/><path class="cls-5" d="M289.07,358.44s-1.39-7.73-8.56-6.26c-7.88,1.63-26.85,8-36.38,12.63-8.36,4.05-9.77,6.23-8.76,12.31s7.92,7.52,10.73,6.64,2,0,38.42-12.11c0,0,6.74-2.95,5.72-7.74s-1.17-5.47-1.17-5.47Z"/><path class="cls-6" d="M242.84,384.36c-3.34-.49-7.18-2.63-7.93-7.16-1.06-6.36.62-8.75,9-12.81,9.55-4.63,28.65-11.06,36.48-12.66a8.26,8.26,0,0,1,2.91-.12c5.07.74,6.17,6.5,6.21,6.75l1.17,5.46c1.09,5.1-5.7,8.13-6,8.25-29.34,9.74-34.47,11.07-36.94,11.71-.57.15-1,.25-1.53.42a7.82,7.82,0,0,1-3.4.16Zm40.34-31.82a7.58,7.58,0,0,0-2.58.1c-7.78,1.6-26.76,8-36.27,12.59-8.48,4.11-9.43,6.21-8.5,11.82.67,4,4.13,5.94,7.15,6.38a7,7,0,0,0,3-.12c.56-.18,1-.29,1.57-.44,2.46-.63,7.57-2,36.85-11.67,0,0,6.33-2.83,5.4-7.19l-1.17-5.47c0-.07-1-5.36-5.43-6Z"/><path class="cls-5" d="M285.33,340.82s-1.27-7-8.57-6.26-31.11,9.4-39.12,14.12-12.7,6.75-11.68,12.83,7.95,7.54,10.76,6.65S280.78,354,280.78,354s6.74-2.94,5.72-7.73-1.17-5.47-1.17-5.47Z"/><path class="cls-6" d="M233.47,368.76c-3.36-.49-7.22-2.64-8-7.17-1-5.84,3.08-8.18,9.77-12.07l2.14-1.25c8.29-4.88,32.17-13.5,39.32-14.18a10.14,10.14,0,0,1,2.41.05c5.54.81,6.65,6.53,6.66,6.59l1.16,5.46c1.1,5.11-5.69,8.13-6,8.26-.46.15-41.32,13.28-44.11,14.16a8.1,8.1,0,0,1-3.39.15ZM279,335.07a9.26,9.26,0,0,0-2.18,0c-7.06.67-30.72,9.21-38.93,14.06l-2.15,1.25c-6.56,3.8-10.18,5.9-9.31,11.1.67,4,4.15,5.95,7.18,6.39a7,7,0,0,0,3-.12c2.78-.88,43.64-14,44.06-14.14,0,0,6.33-2.83,5.4-7.18l-1.17-5.47c0-.23-1-5.14-5.88-5.85Z"/><path class="cls-5" d="M279.81,323.27s-1.35-6.95-8.63-6.16-26.14,9-34.09,13.78S221.4,340,222.48,346s6.25,6.06,9.05,5.14,43.89-14.65,43.89-14.65,6.7-3,5.63-7.8-1.24-5.45-1.24-5.45Z"/><path class="cls-6" d="M227.55,352c-2.1-.31-4.76-1.58-5.53-5.88-1.08-6.06,6-10.33,13.55-14.86l1.27-.77c7.88-4.77,26.77-13,34.29-13.85a10.48,10.48,0,0,1,2.51,0c5.46.8,6.62,6.45,6.63,6.5l1.23,5.45c1.15,5.09-5.6,8.2-5.89,8.33-.45.15-41.16,13.75-43.93,14.66a9.24,9.24,0,0,1-4.13.39Zm45.95-34.4a9,9,0,0,0-2.27,0c-7.27.78-26.27,9.11-33.9,13.72l-1.28.77C228.81,336.42,222,340.53,223,346c.67,3.76,2.94,4.86,4.74,5.12a8.26,8.26,0,0,0,3.7-.35c2.77-.91,43.47-14.51,43.88-14.64,0,0,6.3-2.91,5.32-7.25l-1.24-5.46c0-.22-1.05-5.07-5.85-5.77Z"/><path class="cls-5" d="M273.25,303.14s-2-6.78-9.19-5.3-25.88,10.44-33.33,16-14,11.54-12.36,17.48,6.79,5.42,9.49,4.24l42.29-18.79s6.38-3.65,4.85-8.3l-1.75-5.32Z"/><path class="cls-6" d="M223.29,336.69c-1.86-.27-4.3-1.41-5.38-5.26-1.76-6.29,5-12.36,12.54-18s26.27-14.57,33.52-16.07a9.41,9.41,0,0,1,3.28-.13c4.9.71,6.39,5.55,6.45,5.76l1.75,5.3c1.63,5-4.79,8.7-5.07,8.85-.44.2-39.65,17.64-42.33,18.81a9.08,9.08,0,0,1-4.76.72Zm43.82-38.52a8.51,8.51,0,0,0-2.95.13c-7.16,1.47-25.75,10.39-33.15,15.9-6.94,5.16-13.81,11.22-12.19,17,.75,2.7,2.3,4.24,4.61,4.58a8.24,8.24,0,0,0,4.24-.64c2.68-1.17,41.89-18.61,42.29-18.79,0,0,6-3.5,4.59-7.73l-1.75-5.32c-.06-.19-1.39-4.48-5.69-5.11Z"/><path class="cls-7" d="M161.22,346l-2.83,1.79a13.84,13.84,0,0,0,2.83-1.79Z"/><path class="cls-8" d="M256.3,319.55c-3.73-5.29-8-15-8-15a95,95,0,0,0-5.42-11.41c-2.55-4.17-7.6-2.06-21,1s-34.65,12-34.65,12-4.58,5.34-12.69,21.86c-5.16,10.5-10.29,15.63-13.35,18l40.11-25.29c22.87,7.39,29.85-4.63,29.85-4.63,2,7.17,6.13,13.23,11.33,16.6s16.28,3.81,19,1.36-1.49-9.23-5.22-14.52Z"/><path class="cls-6" d="M158.56,348.25l-.35-.87c.08,0,8-3.42,15.94-19.54,8-16.38,12.56-21.73,12.75-21.95l.08-.09.1,0c.21-.09,21.41-9,34.72-12l5.67-1.36c9.28-2.25,13.53-3.27,15.86.53a97.21,97.21,0,0,1,5.46,11.49c0,.08,4.23,9.69,7.89,14.88,4,5.64,8.15,12.45,5.15,15.14s-14.44,2-19.58-1.32-9.09-9-11.25-16c-2.13,2.61-10.39,10.31-29.81,4.05l.29-.9c22.26,7.18,29.23-4.31,29.3-4.43l.56-1,.29,1.07c2,7.1,6.07,13,11.13,16.34s15.91,3.67,18.45,1.4c2.76-2.47-3.3-11.07-5.3-13.9-3.71-5.27-7.95-15-8-15.06a92.59,92.59,0,0,0-5.4-11.35c-2-3.23-5.73-2.32-14.83-.12-1.71.42-3.6.88-5.68,1.36-12.74,2.93-32.82,11.24-34.47,11.93-.6.74-5.1,6.5-12.55,21.68-8.1,16.49-16.09,19.86-16.43,20Z"/><path class="cls-8" d="M265.62,318.27c2.84-1.26,4.37-1.91,4.37-1.91s5.89-3.31,4.56-8a34.91,34.91,0,0,0-2-5.81s-2.28-5.7-8.41-4.29a48.91,48.91,0,0,0-5,1.58,6.56,6.56,0,0,1,3.71,2.62c1.35,2.1,4.2,9.4,3.94,12a8.72,8.72,0,0,1-1.16,3.86Z"/><path class="cls-8" d="M271.65,337.34c2.82-.93,4.42-1.65,4.42-1.65s5.74-2.83,4.68-7.62a25,25,0,0,0-2.12-6.55,6.62,6.62,0,0,0-7.94-4.09,19.05,19.05,0,0,0-5.1,1.86,5.4,5.4,0,0,1,3.85,2.37c1.29,2.13,3.91,9.52,3.57,12.07a6.68,6.68,0,0,1-1.36,3.61Z"/><path class="cls-8" d="M277.66,354.5a12.3,12.3,0,0,0,4.88-2,6.13,6.13,0,0,0,3.43-7.17,38,38,0,0,0-1.57-6s-2.09-4.34-5.73-4.28c-1.86,1.58-3.74,2.26-6.71,3.12a6.57,6.57,0,0,1,3.75,2.73c1.29,2.14,3.4,8.16,3.06,10.72s-1.11,2.92-1.11,2.92Z"/><path class="cls-8" d="M282.88,371.7c3.54-1,7.95-4,6.86-8.67a48.61,48.61,0,0,0-1.74-6.22,6.86,6.86,0,0,0-4-4.21c-1.82,1.53-3.86,2.15-6.58,3a6.38,6.38,0,0,1,3.64,2.69c1.24,2.1,3.25,8,2.89,10.5s-1.05,2.91-1.05,2.91Z"/><path class="cls-5" d="M113.81,213.26,96,217.79s-5.46,17.75,5.68,29.38l16.89-3.24Z"/><path class="cls-8" d="M117.37,236.08l1.22,7.85-16.89,3.24C90.56,235.54,96,217.79,96,217.79s-.1,16.17,6.61,21Z"/><path class="cls-9" d="M250.83,264.53l2.52,11.83-60.27,11.07-2.6-10.33Z"/><path class="cls-10" d="M250,283.25s12,58.64,36.77,106.56l-47.53,17s-24-48.49-39.42-113.53Z"/><path class="cls-9" d="M289,388.21l-52.47,19,3.75,11.72,53.12-20.25Z"/><path class="cls-11" d="M382.25,10.81S310.85,105.26,269,129.09s-79.74,20.44-79.74,20.44l21.16,125.14S248.54,261,276.31,264,342.15,276.84,442,342.85Z"/><path class="cls-10" d="M189.25,149.53s-85.51-1.83-77.32,73.24,98.48,51.9,98.48,51.9Z"/><path class="cls-12" d="M204.44,238.86l6,35.81S248.54,261,276.31,264,342.15,276.84,442,342.85l-8.47-47.11-59.89-33.6s-52.12-26.83-88.36-31.6-80.79,8.32-80.79,8.32Z"/><path class="cls-9" d="M123.42,175.74c-8.62,10.71-13.81,25.79-11.49,47,8.18,75.07,98.48,51.9,98.48,51.9l-6-35.81s-15.79,3.36-40-4.2c-38.11-11.9-41-58.92-41-58.92Z"/><g class="cls-4"><path class="cls-13" d="M190.75,158.82l-1.5-9.29s37.87,3.41,79.74-20.44S382.25,10.81,382.25,10.81l2.63,14.62S341.3,78.27,330.21,92c-12.36,15.27-34.59,38.57-64,52.3-11.37,5.31-40.22,14.22-75.5,14.55Z"/><path class="cls-9" d="M434.12,172.8c15.93,91.91,19.49,168,8,170S408.3,271.94,392.38,180s-19.49-168-8-170,33.79,70.9,49.71,162.81Z"/><path class="cls-10" d="M447.07,271c3.43,42.38,2,70.59-5,71.79-11.53,2-33.78-70.89-49.7-162.8s-19.49-168-8-170c4.71-.81,11.19,10.83,18.31,31.14,0,0-7.92-15.1-14.14-12.8S395,149.16,402.11,180.72s25.85,137.78,36,140.9S447.07,271,447.07,271Z"/></g><path class="cls-5" d="M410.63,222.07s37.95-11.53,30.52-48.48-45.58-33.68-45.58-33.68,5.76,40.6,15.06,82.16Z"/><path class="cls-14" d="M190.82,158.8l-1.57-9.27s-50.07-1.07-69.91,32.06c0,0,18.5-27.72,71.48-22.79Z"/><path class="cls-8" d="M422.25,216.47a53.47,53.47,0,0,1-11.62,5.6c-9.3-41.56-15.06-82.16-15.06-82.16a37.1,37.1,0,0,1,4.43,0s4.62,43.16,10.48,58.25,11.77,18.34,11.77,18.34Z"/></g></g></svg>