<svg xmlns="http://www.w3.org/2000/svg" viewBox="0 0 500 509.98"><defs><style>.cls-1{fill:#0062db;}.cls-2{fill:#e5d6b9;}.cls-3{fill:#d1a982;}.cls-4{fill:#0050a0;}.cls-5{fill:#003e68;}.cls-6{fill:none;}.cls-7{fill:#5cbf96;}.cls-8{fill:#529e5f;}.cls-9{fill:#cddae3;}.cls-10{fill:#aab4ba;}.cls-11{fill:#e6e6e6;}.cls-12{fill:#ea7e5a;}.cls-13{fill:#d64f39;}.cls-14{fill:#f7d65e;}.cls-15{fill:#d1a22a;}</style></defs><title>Asset 2</title><g id="Layer_2" data-name="Layer 2"><g id="Capa_1" data-name="Capa 1"><circle class="cls-1" cx="250" cy="250" r="250"/><path class="cls-1" d="M447.14,304.38a204.26,204.26,0,0,1-56.32,141.05q-6.29,6.61-13.15,12.66a203.83,203.83,0,0,1-115.82,50.17q-9.63.92-19.51.92-9.72,0-19.22-.9a202.05,202.05,0,0,1-21-3.07q-6.53-1.27-12.89-3A203.06,203.06,0,0,1,145.69,485c-1.42-.76-2.85-1.55-4.24-2.34a205.42,205.42,0,0,1-82-86,204.79,204.79,0,0,1,69.15-262.56q8.07-5.4,16.66-10l.44-.23A205.65,205.65,0,0,1,293.54,106l2.12.57q3,.8,5.88,1.67a205.27,205.27,0,0,1,112.14,83.89c2.73,4.15,5.31,8.42,7.73,12.77a203.78,203.78,0,0,1,25.73,99.46Z"/><path class="cls-2" d="M241.46,176.3c0,1,0,1.91-.05,2.87-1.25,45-69.06,45-70.32,0,0-1,0-1.91,0-2.87a101,101,0,0,1,35.2-76.72,101,101,0,0,1,35.2,76.72Z"/><path class="cls-3" d="M206.26,212.9c-17.27,0-34.54-11.24-35.17-33.73,0-1,0-1.91,0-2.87a101,101,0,0,1,35.2-76.72c-3.33,10.11-6,22.87-7.74,37.35a333.65,333.65,0,0,0-2.25,39.37v2.87c.18,22.49,5.09,33.73,10,33.73Z"/><path class="cls-4" d="M241.46,176.3c-27.45,12.19-32-28-44.47-15.51a4.89,4.89,0,0,1-.4.39c-12.33,11.82-24.27-.65-17.58-24.25a101.47,101.47,0,0,1,27.25-37.35,101,101,0,0,1,35.2,76.72Z"/><path class="cls-5" d="M206.26,99.58c-3.33,10.11-6,22.87-7.74,37.35-.91,7.64-1.57,15.77-1.93,24.25-12.33,11.82-24.27-.65-17.58-24.25a101.47,101.47,0,0,1,27.25-37.35Z"/><rect class="cls-6" x="38.34" y="99.98" width="409" height="410"/><path class="cls-7" d="M233.51,201.86l-3.83,112.78-6.56,193.64a202.05,202.05,0,0,1-21-3.07q-6.53-1.27-12.89-3l-6.36-187.57L179,201.86Z"/><path class="cls-8" d="M202.09,505.21q-6.53-1.27-12.89-3l-6.36-187.57L179,201.86h20.54l.95,112.78Z"/><path class="cls-9" d="M233.51,201.86l-3.83,112.78H182.84L179,201.86Z"/><path class="cls-10" d="M200.51,314.64H182.84L179,201.86h20.55Z"/><path class="cls-4" d="M421.85,192.15l-.44,12.77-3.3,97.33q-2.22,68.33-4.46,136.65c-6.55,5.57-13.72,11.26-21.55,16.94q-7.53,5.46-14.78,10.15l-4.93-163.74-3.74-110.1Z"/><path class="cls-5" d="M391.48,456.14l-7.69,5.24L377,466l-4.62-163.74-3.74-110.1h20.06l.92,110.1Z"/><path class="cls-11" d="M421.85,192.15l-3.73,110.1H372.39l-3.74-110.1Z"/><path class="cls-10" d="M389.63,302.25H372.39l-3.74-110.1h20.07Z"/><path class="cls-2" d="M447.14,106.65,434.35,149.9l-12.49,42.26h-53.2l-18.55-62.72h0l-6.74-22.78Z"/><path class="cls-3" d="M388.71,192.14v0h-20l-18.55-62.72h0l-6.74-22.78h28.38Z"/><path class="cls-12" d="M447.14,106.65,434.35,149.9c-4.53-7.13-8.76-15.16-17.38-18.22-20.63-7.28-17.84,11.91-35.11,19.35-.41.18-.82.33-1.21.49-16.56,6.2-26.65-8.9-30.54-22.08h0l-6.74-22.78Z"/><path class="cls-13" d="M380.65,151.52c-16.56,6.2-26.65-8.9-30.54-22.08h0l-6.74-22.77h28.38Z"/><path class="cls-14" d="M332.06,166v322.5a203.67,203.67,0,0,1-70.21,19.73V166l20-37.83L293.54,106,297,99.58l4.59,8.68,10.53,19.94Z"/><path class="cls-2" d="M332.07,166.07a75.11,75.11,0,0,1-70.24,0l35.11-66.49h0Z"/><path class="cls-15" d="M297,99.58l-1.29,7-12.51,68.18V505.11a204.61,204.61,0,0,1-21.3,3.15V166l20-37.83L293.54,106Z"/><path class="cls-3" d="M297,99.59l-13.57,74a74.16,74.16,0,0,1-21.55-7.48l35.11-66.49Z"/><path class="cls-7" d="M312.07,128.2a32.33,32.33,0,0,1-30.24,0L297,99.58Z"/><path class="cls-8" d="M297,99.58l-5.85,31.84a32,32,0,0,1-9.27-3.22Z"/><path class="cls-9" d="M145.69,99.58V485c-1-.54-2.49-1.35-4.24-2.34-11-6.24-23.29-14.54-42.72-31.9a524.34,524.34,0,0,1-39.19-39q-.06-156.1-.1-312.2Z"/><rect class="cls-6" x="38.34" y="99.98" width="409" height="410"/><rect class="cls-10" x="109.75" y="121.98" width="35.5" height="12.07"/><rect class="cls-10" x="109.75" y="160.71" width="35.5" height="12.07"/><rect class="cls-10" x="109.75" y="199.44" width="35.5" height="12.07"/><rect class="cls-10" x="109.75" y="238.18" width="35.5" height="12.07"/><rect class="cls-10" x="109.75" y="276.91" width="35.5" height="12.07"/><rect class="cls-10" x="109.75" y="315.64" width="35.5" height="12.07"/><rect class="cls-10" x="109.75" y="354.37" width="35.5" height="12.07"/><rect class="cls-10" x="109.75" y="393.1" width="35.5" height="12.07"/><rect class="cls-10" x="109.75" y="431.83" width="35.5" height="12.07"/><path class="cls-10" d="M145.25,470.57v12.07h-3.8a207.42,207.42,0,0,1-18.82-12.07Z"/></g></g></svg>