<svg xmlns="http://www.w3.org/2000/svg" xmlns:xlink="http://www.w3.org/1999/xlink" viewBox="0 0 409.8 410.4"><defs><style>.cls-1{fill:none;}.cls-2{clip-path:url(#clip-path);}.cls-3{fill:#e4e9ed;}.cls-4{fill:#e5d6b9;}.cls-5{fill:#d1a982;}.cls-6{fill:#0079f2;}.cls-7{fill:#005dba;}.cls-8{fill:#5cbf96;}.cls-9{fill:#529e5f;}.cls-10{fill:#cddae3;}.cls-11{fill:#aab4ba;}.cls-12{fill:#e6e6e6;}.cls-13{fill:#ea7e5a;}.cls-14{fill:#d64f39;}.cls-15{fill:#f7d65e;}.cls-16{fill:#d1a22a;}.cls-17{fill:#ed5972;}.cls-18{fill:#d8375a;}</style><clipPath id="clip-path"><rect class="cls-1" x="0.8" y="0.4" width="409" height="410"/></clipPath></defs><title>Asset 7</title><g id="Layer_2" data-name="Layer 2"><g id="Capa_1" data-name="Capa 1"><g class="cls-2"><path class="cls-3" d="M409.6,204.8a204.5,204.5,0,0,1-56.32,141.06q-6.28,6.61-13.15,12.66A204.53,204.53,0,0,1,294.51,389a202.16,202.16,0,0,1-48.9,16.58,204.61,204.61,0,0,1-21.3,3.15q-9.65.92-19.51.92t-19.23-.89a204.76,204.76,0,0,1-21-3.07q-6.51-1.29-12.88-3a202.85,202.85,0,0,1-43.51-17.23q-2.15-1.14-4.25-2.34a205.63,205.63,0,0,1-82-86A204.78,204.78,0,0,1,91.05,34.47q8.06-5.4,16.66-10l.44-.23A205.55,205.55,0,0,1,256,6.45l2.12.56c2,.53,3.92,1.09,5.87,1.67A205.26,205.26,0,0,1,376.14,92.57c2.72,4.16,5.31,8.42,7.73,12.77A203.91,203.91,0,0,1,409.6,204.8Z"/><path class="cls-4" d="M203.92,76.72c0,1,0,1.91,0,2.87-1.25,45-69.06,45-70.32,0,0-1,0-1.91,0-2.87A101,101,0,0,1,168.72,0a101,101,0,0,1,35.2,76.72Z"/><path class="cls-5" d="M168.72,113.32c-17.27,0-34.55-11.24-35.17-33.73,0-1,0-1.91,0-2.87A101.07,101.07,0,0,1,168.72,0c-3.33,10.11-6,22.87-7.74,37.35a333.56,333.56,0,0,0-2.26,39.37c0,1,0,1.91,0,2.87.18,22.49,5.09,33.73,10,33.73Z"/><path class="cls-6" d="M203.92,76.72c-27.45,12.19-32-28-44.47-15.51l-.4.39c-12.33,11.82-24.27-.64-17.58-24.25A101.47,101.47,0,0,1,168.72,0a101,101,0,0,1,35.2,76.72Z"/><path class="cls-7" d="M168.72,0c-3.33,10.11-6,22.87-7.74,37.35-.91,7.65-1.57,15.77-1.93,24.25-12.33,11.82-24.28-.64-17.58-24.25A101.36,101.36,0,0,1,168.72,0Z"/></g><path class="cls-8" d="M196,102.29l-3.83,112.77-6.57,193.65a204.76,204.76,0,0,1-21-3.07q-6.51-1.29-12.88-3L145.3,215.06l-3.83-112.77Z"/><path class="cls-9" d="M164.54,405.64q-6.51-1.29-12.88-3L145.3,215.06l-3.83-112.77H162L163,215.06Z"/><path class="cls-10" d="M196,102.28l-3.83,112.78H145.3l-3.83-112.78Z"/><path class="cls-11" d="M163,215.06H145.3l-3.83-112.78H162Z"/><path class="cls-6" d="M384.31,92.57l-.44,12.77-3.3,97.33-3.85,113.46a205.5,205.5,0,0,1-23.44,29.73q-6.28,6.61-13.15,12.66l-5.29-155.85-3.73-110.1Z"/><path class="cls-7" d="M353.28,345.86q-6.28,6.61-13.15,12.66l-5.29-155.85-3.73-110.1h20.06l.92,110.1Z"/><path class="cls-12" d="M384.31,92.57l-3.74,110.1H334.85l-3.74-110.1Z"/><path class="cls-11" d="M352.09,202.67H334.85l-3.74-110.1h20.06Z"/><path class="cls-4" d="M409.6,7.07,396.81,50.32l-12.5,42.26h-53.2L312.57,29.87h0L305.82,7.07Z"/><path class="cls-5" d="M351.17,92.57H331.11L312.57,29.87h0L305.82,7.07H334.2Z"/><path class="cls-13" d="M409.6,7.07,396.81,50.32c-4.53-7.12-8.77-15.16-17.39-18.21C358.8,24.82,361.58,44,344.31,51.45c-.41.18-.81.34-1.21.49-16.56,6.2-26.64-8.9-30.53-22.07h0L305.82,7.07Z"/><path class="cls-14" d="M343.1,51.94c-16.56,6.21-26.64-8.9-30.53-22.07h0L305.82,7.08H334.2Z"/><path class="cls-15" d="M294.51,66.46V389a202.16,202.16,0,0,1-48.9,16.58,204.61,204.61,0,0,1-21.3,3.15V66.46l20-37.84L256,6.45,259.4,0,264,8.68l10.54,19.94Z"/><path class="cls-4" d="M294.53,66.5a74.94,74.94,0,0,1-35.13,8.69A74.75,74.75,0,0,1,245.84,74a74.33,74.33,0,0,1-21.55-7.47L259.4,0h0Z"/><path class="cls-16" d="M259.4,0l-1.28,7L245.61,75.19V405.53a204.61,204.61,0,0,1-21.3,3.15V66.46l20-37.84L256,6.45Z"/><path class="cls-5" d="M259.4,0,245.84,74a74.33,74.33,0,0,1-21.55-7.47L259.4,0Z"/><path class="cls-17" d="M274.52,28.62a32.21,32.21,0,0,1-15.12,3.75,32,32,0,0,1-5.84-.53,32,32,0,0,1-9.27-3.22L259.4,0Z"/><path class="cls-18" d="M259.4,0l-5.84,31.84a32,32,0,0,1-9.27-3.22Z"/><path class="cls-10" d="M108.15,0V385.4q-2.15-1.14-4.25-2.34a205.63,205.63,0,0,1-82-86V0Z"/><rect class="cls-1" x="0.8" y="0.4" width="409" height="410"/><rect class="cls-11" x="72.21" y="22.4" width="35.5" height="12.07"/><rect class="cls-11" x="72.21" y="61.14" width="35.5" height="12.07"/><rect class="cls-11" x="72.21" y="99.87" width="35.5" height="12.07"/><rect class="cls-11" x="72.21" y="138.6" width="35.5" height="12.07"/><rect class="cls-11" x="72.21" y="177.33" width="35.5" height="12.07"/><rect class="cls-11" x="72.21" y="216.06" width="35.5" height="12.07"/><rect class="cls-11" x="72.21" y="254.79" width="35.5" height="12.07"/><rect class="cls-11" x="72.21" y="293.52" width="35.5" height="12.07"/><rect class="cls-11" x="72.21" y="332.25" width="35.5" height="12.07"/><path class="cls-11" d="M107.71,371v12.07H103.9A207.27,207.27,0,0,1,85.09,371Z"/></g></g></svg>