<?xml version="1.0" encoding="iso-8859-1"?>
<!-- Generator: Adobe Illustrator 19.0.0, SVG Export Plug-In . SVG Version: 6.00 Build 0)  -->
<svg version="1.1" id="Capa_1" xmlns="http://www.w3.org/2000/svg" xmlns:xlink="http://www.w3.org/1999/xlink" x="0px" y="0px"
	 viewBox="0 0 480 480" style="enable-background:new 0 0 480 480;" xml:space="preserve">
<path style="fill:#5AAAE7;" d="M16,416v-32h16v-16H16v-32h32v-16H16v-32h16v-16H16v-32h32v-16H16v-32h16v-16H16v-32h32v-16H16V96h16
	V80H16V48h32V32H16V0H0v424c0,4.422,3.578,8,8,8h472v-16H16z"/>
<g>
	<rect x="80" y="448" style="fill:#69C229;" width="16" height="32"/>
	<rect x="112" y="448" style="fill:#69C229;" width="16" height="32"/>
	<rect x="192" y="448" style="fill:#69C229;" width="16" height="32"/>
	<rect x="224" y="448" style="fill:#69C229;" width="16" height="32"/>
	<rect x="304" y="448" style="fill:#69C229;" width="16" height="32"/>
	<rect x="336" y="448" style="fill:#69C229;" width="16" height="32"/>
	<rect x="416" y="448" style="fill:#69C229;" width="16" height="32"/>
	<rect x="448" y="448" style="fill:#69C229;" width="16" height="32"/>
</g>
<g>
	<circle style="fill:#FFD422;" cx="104" cy="368" r="24"/>
	<circle style="fill:#FFD422;" cx="440" cy="176" r="24"/>
	<path style="fill:#FFD422;" d="M240,280c0.012,2.223-0.312,4.434-0.96,6.56c-3.712,12.724-17.037,20.03-29.761,16.318
		c-12.724-3.712-20.03-17.037-16.318-29.761c3.712-12.724,17.037-20.03,29.761-16.318C233.019,259.803,240.072,269.274,240,280z"/>
	<path style="fill:#FFD422;" d="M352,312c0,13.255-10.745,24-24,24s-24-10.745-24-24c-0.012-2.223,0.312-4.434,0.96-6.56
		c3.71-12.725,17.034-20.033,29.759-16.322C344.903,292.087,351.93,301.391,352,312z"/>
</g>
<g>
	
		<rect x="318.623" y="234.67" transform="matrix(-0.6247 0.7809 -0.7809 -0.6247 812.5313 94.8198)" style="fill:#E7B900;" width="129.713" height="16"/>
	
		<rect x="263.997" y="261.717" transform="matrix(-0.2753 0.9614 -0.9614 -0.2753 631.429 115.9924)" style="fill:#E7B900;" width="15.992" height="68.568"/>
	
		<rect x="110.364" y="315.197" transform="matrix(-0.8001 0.5998 -0.5998 -0.8001 478.939 486.7937)" style="fill:#E7B900;" width="96" height="15.992"/>
</g>
<g>
	<circle style="fill:#F40E34;" cx="104" cy="248" r="24"/>
	<path style="fill:#F40E34;" d="M240,72c0,13.255-10.745,24-24,24s-24-10.745-24-24s10.745-24,24-24S240,58.745,240,72z"/>
	<path style="fill:#F40E34;" d="M464,96c0.048,13.255-10.658,24.039-23.913,24.087c-8.674,0.031-16.69-4.62-20.967-12.167
		c-2.02-3.65-3.092-7.748-3.12-11.92c0-13.255,10.745-24,24-24S464,82.745,464,96z"/>
	<path style="fill:#F40E34;" d="M352,160c0.03,13.255-10.692,24.024-23.947,24.053c-13.255,0.03-24.024-10.692-24.053-23.947
		c-0.03-13.255,10.692-24.024,23.947-24.053c8.604-0.019,16.561,4.569,20.853,12.027C350.888,151.706,351.991,155.816,352,160z"/>
</g>
<g>
	
		<rect x="342.82" y="118.037" transform="matrix(-0.8625 0.506 -0.506 -0.8625 783.4641 39.222)" style="fill:#A6001E;" width="87.168" height="15.992"/>
	
		<rect x="263.995" y="68.768" transform="matrix(-0.6183 0.7859 -0.7859 -0.6183 531.343 -26.0421)" style="fill:#A6001E;" width="16" height="94.456"/>
	
		<rect x="83.694" y="150.123" transform="matrix(-0.5333 0.8459 -0.8459 -0.5333 381.5217 105.7679)" style="fill:#A6001E;" width="155.784" height="16"/>
</g>
<g>
	<rect x="440" y="176" style="fill:#FFFFFF;" width="16" height="16"/>
	<rect x="440" y="96" style="fill:#FFFFFF;" width="16" height="16"/>
	<rect x="328" y="160" style="fill:#FFFFFF;" width="16" height="16"/>
	<rect x="216" y="72" style="fill:#FFFFFF;" width="16" height="16"/>
	<rect x="104" y="248" style="fill:#FFFFFF;" width="16" height="16"/>
	<rect x="104" y="368" style="fill:#FFFFFF;" width="16" height="16"/>
	<rect x="216" y="280" style="fill:#FFFFFF;" width="16" height="16"/>
	<rect x="328" y="312" style="fill:#FFFFFF;" width="16" height="16"/>
</g>
<g>
</g>
<g>
</g>
<g>
</g>
<g>
</g>
<g>
</g>
<g>
</g>
<g>
</g>
<g>
</g>
<g>
</g>
<g>
</g>
<g>
</g>
<g>
</g>
<g>
</g>
<g>
</g>
<g>
</g>
</svg>
