<svg viewBox="1 1 511.99998 511.99998" xmlns="http://www.w3.org/2000/svg"><path d="m512 256c0 51.316406-15.097656 99.097656-41.097656 139.160156-8.617188 13.289063-18.441406 25.726563-29.308594 37.15625-5.234375 5.515625-10.71875 10.804688-16.433594 15.828125-17.128906 15.101563-36.289062 27.933594-57.023437 38.046875-19.152344 9.363282-39.652344 16.382813-61.125 20.71875-8.726563 1.765625-17.617188 3.09375-26.632813 3.941406-8.027344.761719-16.15625 1.148438-24.378906 1.148438-8.109375 0-16.121094-.375-24.03125-1.117188-8.902344-.828124-17.679688-2.113281-26.292969-3.835937-5.429687-1.074219-10.800781-2.328125-16.101562-3.761719-19.109375-5.109375-37.332031-12.382812-54.394531-21.535156-1.777344-.949219-3.554688-1.933594-5.300782-2.925781-8.128906-4.609375-15.972656-9.644531-23.519531-15.089844-33.183594-23.949219-60.40625-55.648437-78.992187-92.449219-17.503907-34.648437-27.367188-73.824218-27.367188-115.285156s9.863281-80.636719 27.367188-115.285156c19.964843-39.515625 49.871093-73.152344 86.441406-97.625 6.71875-4.5 13.667968-8.691406 20.828125-12.546875.175781-.09375.363281-.199219.542969-.292969 35.984374-19.300781 77.121093-30.25 120.820312-30.25 22.097656 0 43.539062 2.800781 64 8.054688.886719.242187 1.765625.472656 2.644531.710937 2.464844.660156 4.910157 1.359375 7.34375 2.089844 58.148438 17.523437 107.582031 55.183593 140.183594 104.855469 3.40625 5.195312 6.636719 10.523437 9.667969 15.96875 20.488281 36.808593 32.160156 79.203124 32.160156 124.320312zm0 0" fill="#515a6e"/><path d="m254.894531 95.902344c0 1.195312-.023437 2.386718-.054687 3.582031-1.5625 56.234375-86.332032 56.234375-87.902344 0-.035156-1.195313-.042969-2.386719-.042969-3.582031 0-17.457032 3.53125-34.078125 9.941407-49.214844 7.644531-18.097656 19.382812-34.046875 34.058593-46.6875 26.9375 23.207031 44 57.550781 44 95.902344zm0 0" fill="#e5d6b9"/><path d="m210.894531 141.65625c-21.589843 0-43.179687-14.054688-43.960937-42.171875-.03125-1.195313-.042969-2.386719-.042969-3.582031 0-17.457032 3.535156-34.078125 9.945313-49.214844 7.640624-18.097656 19.382812-34.046875 34.058593-46.6875-4.164062 12.640625-7.492187 28.589844-9.667969 46.6875-1.816406 15.136719-2.824218 31.757812-2.824218 49.214844 0 1.195312 0 2.386718.011718 3.582031.222657 28.117187 6.355469 42.171875 12.480469 42.171875zm0 0" fill="#d1a982"/><path d="m254.894531 95.902344c-34.316406 15.238281-40-34.980469-55.582031-19.382813-.171875.167969-.332031.332031-.503906.480469-15.410156 14.769531-30.339844-.804688-21.972656-30.3125 7.644531-18.097656 19.382812-34.046875 34.058593-46.6875 26.9375 23.207031 44 57.550781 44 95.902344zm0 0" fill="#49aab7"/><path d="m210.894531 0c-4.164062 12.640625-7.492187 28.589844-9.667969 46.6875-1.144531 9.558594-1.96875 19.714844-2.417968 30.3125-15.414063 14.769531-30.34375-.804688-21.972656-30.3125 7.640624-18.097656 19.382812-34.046875 34.058593-46.6875zm0 0" fill="#488089"/><path d="m244.957031 127.855469-4.789062 140.964843-8.199219 242.0625c-8.902344-.828124-17.679688-2.113281-26.292969-3.835937-5.429687-1.074219-10.800781-2.328125-16.101562-3.761719l-7.949219-234.464844-4.785156-140.964843zm0 0" fill="#5cbf96"/><path d="m205.675781 507.046875c-5.429687-1.074219-10.800781-2.328125-16.101562-3.761719l-7.949219-234.464844-4.785156-140.964843h25.683594l1.179687 140.964843zm0 0" fill="#529e5f"/><path d="m244.953125 127.851562-4.78125 140.96875h-58.546875l-4.785156-140.96875zm0 0" fill="#e6e6e6"/><path d="m203.703125 268.820312h-22.078125l-4.785156-140.96875h25.6875zm0 0" fill="#ccc"/><path d="m480.382812 115.710938-.542968 15.96875-4.128906 121.65625-4.808594 141.824218c-8.617188 13.289063-18.441406 25.726563-29.308594 37.15625-5.234375 5.515625-10.71875 10.804688-16.433594 15.828125l-6.605468-194.808593-4.671876-137.625zm0 0" fill="#49aab7"/><path d="m441.59375 432.316406c-5.234375 5.515625-10.71875 10.804688-16.433594 15.828125l-6.605468-194.808593-4.671876-137.625h25.078126l1.148437 137.625zm0 0" fill="#488089"/><path d="m480.382812 115.714844-4.667968 137.625h-57.15625l-4.671875-137.625zm0 0" fill="#e6e6e6"/><path d="m440.113281 253.339844h-21.554687l-4.671875-137.625h25.078125zm0 0" fill="#ccc"/><path d="m511.996094 8.84375-15.984375 54.058594-15.621094 52.820312h-66.5l-23.183594-78.390625-.011719-.015625-8.421874-28.472656zm0 0" fill="#e5d6b9"/><path d="m438.957031 115.707031-.019531.015625h-25.046875l-23.183594-78.390625-.011719-.015625-8.421874-28.472656h35.472656zm0 0" fill="#d1a982"/><path d="m511.996094 8.84375-15.984375 54.058594c-5.664063-8.910156-10.960938-18.949219-21.734375-22.769532-25.777344-9.105468-22.300782 14.878907-43.886719 24.179688-.511719.222656-1.015625.417969-1.515625.613281-20.699219 7.75-33.300781-11.128906-38.167969-27.59375l-.011719-.015625-8.421874-28.472656zm0 0" fill="#ea7e5a"/><path d="m428.875 64.925781c-20.699219 7.753907-33.300781-11.128906-38.167969-27.59375l-.011719-.011719-8.421874-28.472656h35.472656zm0 0" fill="#d64f39"/><path d="m368.136719 83.070312v403.121094c-19.152344 9.363282-39.652344 16.382813-61.125 20.71875-8.726563 1.765625-17.617188 3.09375-26.632813 3.941406v-427.78125l24.980469-47.292968 14.640625-27.722656 4.253906-8.054688 5.734375 10.855469 13.167969 24.921875zm0 0" fill="#f7d65e"/><path d="m368.160156 83.121094c-13.117187 6.941406-28.066406 10.867187-43.917968 10.867187-5.777344 0-11.453126-.519531-16.949219-1.523437-9.570313-1.746094-18.628907-4.933594-26.9375-9.34375l43.886719-83.121094.007812.0117188zm0 0" fill="#e5d6b9"/><path d="m324.253906 0-1.609375 8.765625-15.632812 85.222656v412.921875c-8.726563 1.765625-17.617188 3.09375-26.632813 3.941406v-427.78125l24.980469-47.292968 14.640625-27.722656zm0 0" fill="#d1a22a"/><path d="m324.25.0117188-16.957031 92.4531252c-9.570313-1.746094-18.628907-4.933594-26.9375-9.34375l43.886719-83.121094zm0 0" fill="#d1a982"/><path d="m343.152344 35.777344c-5.640625 2.988281-12.078125 4.683594-18.902344 4.683594-2.496094 0-4.941406-.222657-7.300781-.660157-4.117188-.75-8.015625-2.121093-11.589844-4.023437l18.890625-35.777344zm0 0" fill="#ed5972"/><path d="m324.25 0-7.300781 39.800781c-4.117188-.75-8.015625-2.121093-11.589844-4.023437zm0 0" fill="#d8375a"/><path d="m135.179688 0v481.75c-1.777344-.949219-3.554688-1.933594-5.300782-2.925781-8.128906-4.609375-15.972656-9.644531-23.519531-15.089844-33.183594-23.949219-60.40625-55.648437-78.992187-92.449219v-371.285156zm0 0" fill="#ea7e5a"/><g fill="#d64f39"><path d="m90.257812 28.003906h44.375v15.085938h-44.375zm0 0"/><path d="m90.257812 76.417969h44.375v15.089843h-44.375zm0 0"/><path d="m90.257812 124.832031h44.375v15.089844h-44.375zm0 0"/><path d="m90.257812 173.246094h44.375v15.085937h-44.375zm0 0"/><path d="m90.257812 221.660156h44.375v15.085938h-44.375zm0 0"/><path d="m90.257812 270.074219h44.375v15.085937h-44.375zm0 0"/><path d="m90.257812 318.488281h44.375v15.089844h-44.375zm0 0"/><path d="m90.257812 366.902344h44.375v15.089844h-44.375zm0 0"/><path d="m90.257812 415.316406h44.375v15.089844h-44.375zm0 0"/><path d="m134.636719 463.734375v15.089844h-4.757813c-8.128906-4.609375-15.972656-9.644531-23.519531-15.089844zm0 0"/></g></svg>