<svg height="512pt" viewBox="-2 0 512 512" width="512pt" xmlns="http://www.w3.org/2000/svg"><path d="m498.746094 311.082031-128.089844-136.46875c-3.394531-3.617187-7.664062-6.402343-12.355469-8.054687-2.453125-.867188-5.183593-.40625-7.214843 1.226562-2.03125 1.625-3.078126 4.1875-2.769532 6.773438l9.144532 76.375c.191406 1.605468.898437 3.109375 2.015624 4.289062l93.617188 98.707032c5.703125 6.078124 13.457031 9.574218 21.835938 9.839843.339843.007813.683593.015625 1.023437.015625 8 0 15.5625-2.980468 21.390625-8.453125 6.078125-5.707031 9.574219-13.460937 9.835938-21.835937.265624-8.378906-2.726563-16.339844-8.433594-22.414063zm0 0" fill="#f0bca6"/><path d="m204.535156 168.8125c-2.027344-1.628906-4.757812-2.09375-7.214844-1.226562-4.691406 1.652343-8.960937 4.4375-12.355468 8.054687l-128.089844 136.46875c-5.703125 6.078125-8.699219 14.039063-8.433594 22.414063s3.757813 16.132812 9.835938 21.835937c5.832031 5.472656 13.394531 8.453125 21.390625 8.453125.34375 0 .683593-.003906 1.027343-.015625 8.375-.265625 16.132813-3.761719 21.808594-9.808594l93.644532-98.742187c1.113281-1.171875 1.820312-2.675782 2.015624-4.289063l9.144532-76.371093c.308594-2.585938-.738282-5.148438-2.773438-6.773438zm0 0" fill="#f0bca6"/><path d="m368.117188 367.847656-59.5625-55.046875c-2.773438-2.5625-7.011719-2.679687-9.921876-.269531l-44.695312 37.027344c-1.769531 1.464844-2.773438 3.65625-2.726562 5.953125.046874 2.296875 1.136718 4.445312 2.964843 5.839843l54.429688 41.496094c4.984375 3.796875 7.609375 9.792969 7.027343 16.035156l-5.5625 59.628907c-.199218 2.109375.503907 4.207031 1.929688 5.773437 1.429688 1.566406 3.449219 2.460938 5.570312 2.460938h36.632813c3.5625 0 6.640625-2.5 7.371094-5.988282l16.875-80.566406c2.46875-11.78125-1.492188-24.175781-10.332031-32.34375zm0 0" fill="#4890e3"/><path d="m312.464844 349.558594-44.695313-37.027344c-2.910156-2.410156-7.148437-2.292969-9.921875.269531l-59.566406 55.046875c-8.835938 8.171875-12.796875 20.566406-10.328125 32.34375l16.875 80.566406c.730469 3.488282 3.808594 5.988282 7.375 5.988282h36.628906c2.121094 0 4.140625-.894532 5.570313-2.460938 1.425781-1.566406 2.128906-3.664062 1.933594-5.773437l-5.566407-59.628907c-.582031-6.242187 2.042969-12.238281 7.03125-16.035156l54.425781-41.496094c1.828126-1.390624 2.917969-3.542968 2.964844-5.839843s-.957031-4.488281-2.726562-5.953125zm0 0" fill="#4890e3"/><path d="m277.246094 122.980469c-57.59375 0-104.453125 46.859375-104.453125 104.457031v85.207031c0 57.597657 46.859375 104.457031 104.453125 104.457031 57.597656 0 104.457031-46.859374 104.457031-104.457031v-85.207031c0-57.597656-46.859375-104.457031-104.457031-104.457031zm0 0" fill="#f2c5b2"/><path d="m277.246094 122.980469c-3.902344 0-7.757813.222656-11.550782.640625 52.179688 5.769531 92.90625 50.121094 92.90625 103.816406v85.207031c0 53.691407-40.726562 98.046875-92.90625 103.8125 3.792969.421875 7.648438.644531 11.550782.644531 57.597656 0 104.457031-46.859374 104.457031-104.457031v-85.207031c0-57.597656-46.859375-104.457031-104.457031-104.457031zm0 0" fill="#e6b09a"/><path d="m282.882812 325.867188h-12.851562c-4.164062 0-7.535156-3.375-7.535156-7.535157 0-4.160156 3.371094-7.535156 7.535156-7.535156h12.851562c4.160157 0 7.53125 3.375 7.53125 7.535156 0 4.160157-3.371093 7.535157-7.53125 7.535157zm0 0" fill="#f0bca6"/><path d="m186.144531 97.773438c-.035156 0-.074219 0-.109375 0-19.589844.058593-35.484375 16.046874-35.425781 35.640624.058594 19.558594 15.988281 35.429688 35.53125 35.429688h.109375c19.59375-.0625 35.484375-16.050781 35.425781-35.640625-.054687-19.558594-15.988281-35.429687-35.53125-35.429687zm0 0" fill="#e6b09a"/><path d="m368.355469 97.226562c-.035157 0-.070313 0-.105469 0-9.492188.027344-18.40625 3.753907-25.097656 10.484376-6.691406 6.730468-10.359375 15.664062-10.332032 25.15625.03125 9.492187 3.753907 18.402343 10.484376 25.097656 6.707031 6.664062 15.597656 10.332031 25.046874 10.332031h.109376c9.492187-.027344 18.40625-3.753906 25.097656-10.484375s10.359375-15.664062 10.332031-25.15625c-.0625-19.558594-15.992187-35.429688-35.535156-35.429688zm0 0" fill="#e6b09a"/><path d="m368.355469 97.226562c-.035157 0-.070313 0-.105469 0-3.074219.011719-6.085938.417969-8.980469 1.179688 15.167969 4.011719 26.410157 17.828125 26.460938 34.25.027343 9.492188-3.640625 18.425781-10.332031 25.15625-4.527344 4.550781-10.066407 7.722656-16.113282 9.308594 2.925782.769531 5.964844 1.175781 9.066406 1.175781h.109376c9.492187-.027344 18.402343-3.753906 25.09375-10.484375 6.691406-6.730469 10.359374-15.664062 10.332031-25.15625-.058594-19.558594-15.988281-35.429688-35.53125-35.429688zm0 0" fill="#e2a58a"/><path d="m225.628906 500.699219-52.703125-91.285157c-1.347656-2.332031-3.832031-3.765624-6.527343-3.765624-2.691407 0-5.175782 1.433593-6.523438 3.765624l-26.488281 45.882813-46.558594-80.640625c-1.347656-2.328125-3.832031-3.765625-6.523437-3.765625-2.691407 0-5.179688 1.4375-6.523438 3.765625l-72.773438 126.042969c-1.34375 2.328125-1.34375 5.203125 0 7.53125 1.347657 2.332031 3.832032 3.769531 6.527344 3.769531h211.570313c2.691406 0 5.175781-1.4375 6.523437-3.769531 1.34375-2.328125 1.34375-5.203125 0-7.53125zm0 0" fill="#c06721"/><path d="m110.28125 455.296875 11.554688-20.007813-35.007813-60.632812c-1.34375-2.332031-3.832031-3.765625-6.523437-3.765625-2.691407 0-5.179688 1.433594-6.523438 3.765625l-5.027344 8.707031zm0 0" fill="#9f5c2e"/><path d="m225.628906 500.699219-52.703125-91.285157c-1.347656-2.332031-3.832031-3.765624-6.527343-3.765624-2.691407 0-5.175782 1.433593-6.523438 3.765624l-5.027344 8.707032 47.675782 82.578125c1.347656 2.332031 1.347656 5.203125 0 7.535156-1.34375 2.332031-3.832032 3.765625-6.523438 3.765625h23.105469c2.691406 0 5.175781-1.4375 6.523437-3.765625 1.34375-2.332031 1.34375-5.207031 0-7.535156zm0 0" fill="#9f5c2e"/><path d="m379.363281 447.285156h-44.039062c-17.3125 0-31.394531 14.085938-31.394531 31.394532v23.667968c0 4.261719 3.464843 7.726563 7.726562 7.726563h67.707031c17.3125 0 31.394531-14.082031 31.394531-31.394531 0-17.308594-14.082031-31.394532-31.394531-31.394532zm0 0" fill="#d47a3d"/><path d="m231.082031 447.285156h-44.042969c-17.3125 0-31.394531 14.085938-31.394531 31.394532 0 17.3125 14.082031 31.394531 31.394531 31.394531h67.707032c4.261718 0 7.726562-3.46875 7.726562-7.726563v-23.667968c0-17.308594-14.082031-31.394532-31.390625-31.394532zm0 0" fill="#d47a3d"/><path d="m379.363281 447.285156h-23.101562c17.308593 0 31.394531 14.085938 31.394531 31.394532 0 17.3125-14.085938 31.394531-31.394531 31.394531h23.101562c17.3125 0 31.394531-14.082031 31.394531-31.394531 0-17.308594-14.082031-31.394532-31.394531-31.394532zm0 0" fill="#c06721"/><path d="m231.082031 447.285156h-23.105469c17.3125 0 31.394532 14.085938 31.394532 31.394532v23.667968c0 4.261719-3.464844 7.726563-7.726563 7.726563h23.101563c4.261718 0 7.726562-3.464844 7.726562-7.726563v-23.667968c0-17.308594-14.082031-31.394532-31.390625-31.394532zm0 0" fill="#c06721"/><path d="m180.234375 351.1875c.046875.132812.082031.273438.136719.40625 7.722656 19.078125 20.8125 35.367188 37.84375 47.105469 17.464844 12.039062 37.875 18.402343 59.035156 18.402343 21.15625 0 41.570312-6.363281 59.03125-18.402343 17.035156-11.738281 30.121094-28.027344 37.847656-47.105469.054688-.132812.089844-.273438.136719-.40625zm0 0" fill="#3c7dda"/><path d="m351.160156 351.1875c-.046875.132812-.082031.273438-.136718.40625-7.726563 19.078125-20.8125 35.367188-37.847657 47.105469-14.257812 9.832031-30.484375 15.871093-47.480469 17.757812 3.816407.425781 7.671876.644531 11.550782.644531 21.160156 0 41.574218-6.363281 59.035156-18.402343 17.03125-11.738281 30.121094-28.027344 37.84375-47.105469.054688-.132812.09375-.273438.136719-.40625zm0 0" fill="#2970d6"/><path d="m371.660156 79.160156c0-.234375-.015625-.46875-.035156-.699218v-16.03125c0-17.269532-10.238281-33.296876-28.832031-45.125-17.539063-11.160157-40.617188-17.304688-64.980469-17.304688-24.367188 0-47.441406 6.144531-64.980469 17.304688-18.59375 11.828124-28.835937 27.855468-28.835937 45.125v16.875l.230468 75.484374c.152344 51.640626 42.214844 93.546876 93.824219 93.546876h.285157c51.738281-.152344 93.703124-42.371094 93.550781-94.109376zm0 0" fill="#f0bca6"/><path d="m371.660156 79.160156c0-.234375-.015625-.46875-.035156-.699218v-16.03125c0-17.269532-10.238281-33.296876-28.832031-45.125-17.539063-11.160157-40.617188-17.304688-64.980469-17.304688-3.894531 0-7.746094.171875-11.554688.484375 20.039063 1.625 38.691407 7.441406 53.429688 16.820313 18.59375 11.828124 28.832031 27.855468 28.832031 45.125v16.03125c.023438.230468.035157.464843.035157.699218l.226562 75.066406c.144531 47.925782-35.859375 87.679688-82.289062 93.398438 3.789062.46875 7.644531.710938 11.558593.710938h.285157c51.738281-.152344 93.703124-42.371094 93.546874-94.109376zm0 0" fill="#e6b09a"/><path d="m371.660156 79.160156c0-.234375-.015625-.46875-.035156-.695312v-16.035156c0-17.269532-10.238281-33.296876-28.832031-45.128907-17.539063-11.15625-40.617188-17.300781-64.980469-17.300781-24.367188 0-47.441406 6.144531-64.980469 17.300781-18.59375 11.832031-28.835937 27.859375-28.835937 45.128907v16.871093l.042968 13.300781c.011719 4.152344 3.382813 7.511719 7.53125 7.511719h172.59375c2.003907 0 3.921876-.796875 5.335938-2.214843 1.414062-1.417969 2.207031-3.339844 2.199219-5.34375zm0 0" fill="#d47a3d"/><path d="m371.660156 79.160156c0-.234375-.015625-.46875-.035156-.695312v-16.035156c0-17.269532-10.238281-33.296876-28.832031-45.128907-17.539063-11.15625-40.617188-17.300781-64.980469-17.300781-24.367188 0-47.441406 6.144531-64.980469 17.300781-18.59375 11.832031-28.835937 27.859375-28.835937 45.128907v16.871093l.042968 13.300781c.011719 4.152344 3.382813 7.511719 7.53125 7.511719h172.59375c2.003907 0 3.921876-.796875 5.335938-2.214843 1.414062-1.417969 2.207031-3.339844 2.199219-5.34375zm0 0" fill="#d47a3d"/><path d="m371.660156 79.160156c0-.234375-.015625-.46875-.035156-.695312v-16.035156c0-17.269532-10.238281-33.296876-28.832031-45.128907-17.539063-11.15625-40.617188-17.300781-64.980469-17.300781-3.894531 0-7.746094.171875-11.554688.480469 20.039063 1.628906 38.691407 7.445312 53.429688 16.820312 18.59375 11.832031 28.832031 27.859375 28.832031 45.128907v16.03125c.023438.230468.035157.464843.035157.699218l.039062 13.394532c.007812 2.003906-.78125 3.925781-2.195312 5.34375-1.414063 1.417968-3.335938 2.214843-5.335938 2.214843h23.101562c2.003907 0 3.921876-.796875 5.335938-2.214843 1.414062-1.417969 2.203125-3.339844 2.199219-5.34375zm0 0" fill="#c06721"/><path d="m277.355469 188.742188c-6.621094 0-12.953125-2.460938-17.835938-6.929688-3.070312-2.808594-3.28125-7.574219-.46875-10.644531 2.804688-3.066407 7.574219-3.277344 10.640625-.46875 2.097656 1.917969 4.820313 2.972656 7.664063 2.972656h.035156c2.855469-.007813 5.582031-1.078125 7.675781-3.019531 3.054688-2.824219 7.816406-2.644532 10.648438.410156 2.824218 3.050781 2.640625 7.820312-.410156 10.644531-4.875 4.515625-11.222657 7.015625-17.871094 7.035157-.023438 0-.054688 0-.078125 0zm0 0" fill="#e2a58a"/><path d="m258.273438 152.648438c-.011719-4.183594-3.414063-7.566407-7.601563-7.554688-4.183594.011719-7.566406 3.414062-7.554687 7.601562.015624 4.183594 3.417968 7.566407 7.601562 7.554688s7.566406-3.414062 7.554688-7.601562zm0 0" fill="#868686"/><path d="m259.59375 143.414062c-.640625 0-1.285156-.085937-1.933594-.253906l-17.898437-4.738281c-4.023438-1.0625-6.421875-5.1875-5.355469-9.210937 1.0625-4.019532 5.183594-6.414063 9.207031-5.355469l17.902344 4.738281c4.023437 1.066406 6.421875 5.1875 5.355469 9.210938-.894532 3.375-3.941406 5.609374-7.277344 5.609374zm0 0" fill="#9f5c2e"/><path d="m311.804688 152.488281c-.011719-4.183593-3.414063-7.566406-7.601563-7.554687-4.183594.011718-7.566406 3.414062-7.554687 7.601562.011718 4.183594 3.417968 7.566406 7.601562 7.554688 4.183594-.015625 7.566406-3.417969 7.554688-7.601563zm0 0" fill="#868686"/><path d="m295.226562 143.304688c-3.316406 0-6.355468-2.207032-7.265624-5.5625-1.089844-4.015626 1.285156-8.15625 5.300781-9.242188l17.871093-4.847656c4.011719-1.089844 8.152344 1.285156 9.242188 5.300781s-1.285156 8.15625-5.300781 9.242187l-17.871094 4.84375c-.660156.179688-1.324219.265626-1.976563.265626zm0 0" fill="#9f5c2e"/><path d="m478.152344 463.660156-14.976563-10.390625v-8.441406l6.648438 4.613281c1.308593.90625 2.804687 1.34375 4.285156 1.34375 2.386719 0 4.734375-1.132812 6.199219-3.242187 2.371094-3.417969 1.523437-8.109375-1.894532-10.484375l-15.238281-10.574219v-3.359375c0-4.160156-3.371093-7.535156-7.535156-7.535156-4.160156 0-7.53125 3.375-7.53125 7.535156v3.425781l-14.800781 10.566407c-3.386719 2.417968-4.167969 7.125-1.75 10.507812 2.414062 3.390625 7.121094 4.171875 10.507812 1.753906l6.042969-4.3125v7.898438l-15.058594 10.753906c-3.386719 2.417969-4.171875 7.121094-1.753906 10.507812 2.417969 3.386719 7.121094 4.167969 10.507813 1.753907l6.304687-4.5v31.863281c0 4.160156 3.371094 7.535156 7.535156 7.535156 4.160157 0 7.53125-3.375 7.53125-7.535156v-31.738281l6.386719 4.433593c1.308594.90625 2.808594 1.34375 4.289062 1.34375 2.386719 0 4.734376-1.132812 6.195313-3.242187 2.371094-3.414063 1.523437-8.109375-1.894531-10.480469zm0 0" fill="#00a983"/></svg>