<svg xmlns="http://www.w3.org/2000/svg" viewBox="0 0 96.58 44.59"><defs><style>.cls-1{fill:#cddae3;}.cls-2{fill:#fff;}.cls-3{fill:none;}.cls-3,.cls-4{stroke:#0062db;stroke-miterlimit:10;stroke-width:3px;}.cls-4{fill:#0062db;}</style></defs><title>Asset 6</title><g id="Layer_2" data-name="Layer 2"><g id="Capa_1" data-name="Capa 1"><path class="cls-1" d="M35.11,12.33h3.62a1.89,1.89,0,0,0,1.76-.93,1.18,1.18,0,0,0-.68-1.51L21.36.25a2.46,2.46,0,0,0-2.15,0L.77,9.89A1.17,1.17,0,0,0,.09,11.4a1.87,1.87,0,0,0,1.76.93H35.11Z"/><rect class="cls-1" x="9.69" y="10.7" width="21.2" height="27.84"/><rect class="cls-1" x="34.51" y="21.19" width="10.36" height="5.13" rx="1.54"/><rect class="cls-1" x="37.58" y="29.25" width="25.56" height="5.8" rx="1.32" transform="translate(40.16 -26.72) rotate(47.62)"/><rect class="cls-1" x="4.72" y="8.61" width="8.89" height="34.48" rx="1.5"/><rect class="cls-1" x="26.97" y="8.61" width="8.89" height="34.48" rx="1.5"/><rect class="cls-2" x="11.97" y="13.34" width="16.65" height="9.41" rx="1.85"/><circle class="cls-3" cx="47.6" cy="23.73" r="3.45"/><circle class="cls-4" cx="58.29" cy="36.03" r="3.45"/><circle class="cls-3" cx="75.63" cy="39.65" r="3.45"/><circle class="cls-4" cx="91.63" cy="39.65" r="3.45"/></g></g></svg>